<svg width="96" height="96" xmlns="http://www.w3.org/2000/svg" xmlns:xlink="http://www.w3.org/1999/xlink" xml:space="preserve" overflow="hidden"><g transform="translate(-917 -389)"><path d="M965 449C958.4 449 953 443.6 953 437 953 430.4 958.4 425 965 425 971.6 425 977 430.4 977 437 977 443.6 971.6 449 965 449ZM992 429.5C991.4 427.3 990.5 425.2 989.4 423.3L991.9 415.8 986.2 410.1 978.7 412.6C976.7 411.5 974.6 410.6 972.4 410L969 403 961 403 957.5 410C955.3 410.6 953.2 411.5 951.3 412.6L943.8 410.1 938.1 415.8 940.6 423.3C939.5 425.3 938.6 427.4 938 429.6L931 433 931 441 938 444.5C938.6 446.7 939.5 448.8 940.6 450.7L938.1 458.2 943.8 463.9 951.3 461.4C953.3 462.5 955.4 463.4 957.6 464L961.1 471 969.1 471 972.6 464C974.8 463.4 976.9 462.5 978.8 461.4L986.3 463.9 992 458.2 989.5 450.7C990.6 448.7 991.5 446.6 992.1 444.4L999.1 440.9 999.1 432.9 992 429.5Z" fill="#104862"/></g></svg>